<?xml version="1.0" encoding="iso-8859-1"?>
<!-- Generator: Adobe Illustrator 19.0.0, SVG Export Plug-In . SVG Version: 6.00 Build 0)  -->
<svg version="1.1" id="Capa_1" xmlns="http://www.w3.org/2000/svg" xmlns:xlink="http://www.w3.org/1999/xlink" x="0px" y="0px"
	 viewBox="0 0 512 512" style="enable-background:new 0 0 512 512;" xml:space="preserve">
<g>
	<g>
		<path d="M510.152,354.88L472,309.104V96c0-22.056-17.944-40-40-40H256c-22.056,0-40,17.944-40,40v320c0,22.056,17.944,40,40,40
			h128v8c0,2.12,0.84,4.16,2.344,5.656L416,499.312V512h16v-16c0-2.12-0.84-4.16-2.344-5.656L400,460.688V324
			c0-6.616,5.384-12,12-12c6.616,0,12,5.384,12,12v52c0,2.12,0.84,4.16,2.344,5.656l32,32c2.296,2.296,5.736,2.976,8.72,1.736
			c2.992-1.24,4.936-4.16,4.936-7.392v-73.904l24,28.8V512h16V360C512,358.128,511.344,356.32,510.152,354.88z M384,440H256
			c-13.232,0-24-10.768-24-24v-8h152V440z M456,388.688l-16-16V324c0-15.44-12.56-28-28-28s-28,12.56-28,28v68H232V120h224V388.688z
			 M456,104H232v-8c0-13.232,10.768-24,24-24h176c13.232,0,24,10.768,24,24V104z" style="fill:white"/>
	</g>
</g>
<g>
	<g>
		<path d="M328,496H40c-13.232,0-24-10.768-24-24V96h72c4.424,0,8-3.584,8-8V16h232c13.232,0,24,10.768,24,24h16
			c0-22.056-17.944-40-40-40H88c-2.216,0-4.216,0.896-5.664,2.352L2.352,82.336C0.896,83.784,0,85.784,0,88v384
			c0,22.056,17.944,40,40,40h288c22.056,0,40-17.944,40-40h-16C352,485.232,341.232,496,328,496z M80,27.312V80H27.312L80,27.312z" style="fill:white"
			/>
	</g>
</g>
<g>
	<g>
		<rect x="40" y="288" width="160" height="16"/>
	</g>
</g>
<g>
	<g>
		<rect x="40" y="320" width="160" height="16"/>
	</g>
</g>
<g>
	<g>
		<rect x="40" y="352" width="160" height="16"/>
	</g>
</g>
<g>
	<g>
		<rect x="40" y="384" width="160" height="16"/>
	</g>
</g>
<g>
	<g>
		<rect x="40" y="416" width="160" height="16"/>
	</g>
</g>
<g>
	<g>
		<rect x="40" y="448" width="160" height="16"/>
	</g>
</g>
<g>
	<g>
		<path d="M296,144h-32c-4.424,0-8,3.584-8,8v32c0,4.416,3.576,8,8,8h32c4.424,0,8-3.584,8-8v-32C304,147.584,300.424,144,296,144z
			 M288,176h-16v-16h16V176z" style="fill:white"/>
	</g>
</g>
<g>
	<g>
		<path d="M80,112H48c-4.424,0-8,3.584-8,8v32c0,4.416,3.576,8,8,8h32c4.424,0,8-3.584,8-8v-32C88,115.584,84.424,112,80,112z
			 M72,144H56v-16h16V144z" style="fill:white"/>
	</g>
</g>
<g>
	<g>
		<path d="M80,224H48c-4.424,0-8,3.584-8,8v32c0,4.416,3.576,8,8,8h32c4.424,0,8-3.584,8-8v-32C88,227.584,84.424,224,80,224z
			 M72,256H56v-16h16V256z"/>
	</g>
</g>
<g>
	<g>
		<path d="M184,112h-32c-4.424,0-8,3.584-8,8v32c0,4.416,3.576,8,8,8h32c4.424,0,8-3.584,8-8v-32C192,115.584,188.424,112,184,112z
			 M176,144h-16v-16h16V144z"/>
	</g>
</g>
<g>
	<g>
		<path d="M424,144h-32c-4.424,0-8,3.584-8,8v32c0,4.416,3.576,8,8,8h32c4.424,0,8-3.584,8-8v-32C432,147.584,428.424,144,424,144z
			 M416,176h-16v-16h16V176z"/>
	</g>
</g>
<g>
	<g>
		<path d="M296,272h-32c-4.424,0-8,3.584-8,8v32c0,4.416,3.576,8,8,8h32c4.424,0,8-3.584,8-8v-32C304,275.584,300.424,272,296,272z
			 M288,304h-16v-16h16V304z"/>
	</g>
</g>
<g>
	<g>
		<rect x="256" y="208" width="48" height="16"/>
	</g>
</g>
<g>
	<g>
		<rect x="320" y="144" width="16" height="16"/>
	</g>
</g>
<g>
	<g>
		<path d="M368,208v-64h-16v16h-16v16h16v40c0,4.416,3.576,8,8,8h32v-16H368z"/>
	</g>
</g>
<g>
	<g>
		<rect x="320" y="176" width="16" height="56"/>
	</g>
</g>
<g>
	<g>
		<rect x="256" y="240" width="16" height="16"/>
	</g>
</g>
<g>
	<g>
		<rect x="288" y="240" width="16" height="16"/>
	</g>
</g>
<g>
	<g>
		<rect x="320" y="280" width="16" height="40"/>
	</g>
</g>
<g>
	<g>
		<rect x="320" y="248" width="16" height="16"/>
	</g>
</g>
<g>
	<g>
		<rect x="336" y="264" width="16" height="16"/>
	</g>
</g>
<g>
	<g>
		<rect x="336" y="232" width="16" height="16"/>
	</g>
</g>
<g>
	<g>
		<rect x="352" y="296" width="16" height="16"/>
	</g>
</g>
<g>
	<g>
		<rect x="408" y="208" width="16" height="16"/>
	</g>
</g>
<g>
	<g>
		<path d="M392,240c-4.424,0-8,3.584-8,8v40h16v-32h32v-16H392z"/>
	</g>
</g>
<g>
	<g>
		<rect x="416" y="272" width="16" height="16"/>
	</g>
</g>
<g>
	<g>
		<rect x="352" y="248" width="16" height="16"/>
	</g>
</g>
<g>
	<g>
		<polygon points="72,192 72,176 56,176 56,192 40,192 40,208 104,208 104,192 		"/>
	</g>
</g>
<g>
	<g>
		<rect x="96" y="112" width="16" height="16"/>
	</g>
</g>
<g>
	<g>
		<rect x="96" y="144" width="16" height="16"/>
	</g>
</g>
<g>
	<g>
		<rect x="112" y="128" width="16" height="16"/>
	</g>
</g>
<g>
	<g>
		<rect x="104" y="208" width="16" height="16"/>
	</g>
</g>
<g>
	<g>
		<rect x="120" y="160" width="16" height="16"/>
	</g>
</g>
<g>
	<g>
		<rect x="104" y="176" width="16" height="16"/>
	</g>
</g>
<g>
	<g>
		<rect x="136" y="176" width="16" height="16"/>
	</g>
</g>
<g>
	<g>
		<path d="M176,176v16h-24v16h32c4.424,0,8-3.584,8-8v-24H176z"/>
	</g>
</g>
<g>
	<g>
		<rect x="120" y="192" width="16" height="16"/>
	</g>
</g>
<g>
	<g>
		<rect x="168" y="240" width="16" height="16"/>
	</g>
</g>
<g>
	<g>
		<rect x="136" y="208" width="16" height="16"/>
	</g>
</g>
<g>
	<g>
		<polygon points="136,240 136,224 120,224 120,240 104,240 104,256 152,256 152,240 		"/>
	</g>
</g>
<g>
	<g>
		<rect x="152" y="256" width="16" height="16"/>
	</g>
</g>
<g>
</g>
<g>
</g>
<g>
</g>
<g>
</g>
<g>
</g>
<g>
</g>
<g>
</g>
<g>
</g>
<g>
</g>
<g>
</g>
<g>
</g>
<g>
</g>
<g>
</g>
<g>
</g>
<g>
</g>
</svg>
